<svg width="125" height="30" viewBox="0 0 125 30" fill="none" xmlns="http://www.w3.org/2000/svg">
<path fill-rule="evenodd" clip-rule="evenodd" d="M41.4387 23.0095C44.0374 23.0095 46.2517 22.0645 47.7205 20.3127L45.8225 18.4687C44.6701 19.7595 43.2465 20.3819 41.5969 20.3819C38.3205 20.3819 35.948 18.0308 35.948 14.7116C35.948 11.3925 38.3205 9.04147 41.5969 9.04147C43.2465 9.04147 44.6701 9.66381 45.8225 10.9315L47.7205 9.11063C46.2517 7.35885 44.0374 6.41382 41.4614 6.41382C36.6032 6.41382 32.9878 9.89431 32.9878 14.7116C32.9878 19.5291 36.6032 23.0095 41.4387 23.0095ZM60.4084 23.0095C65.3117 23.0095 68.9271 19.5059 68.9271 14.7116C68.9271 9.91735 65.3117 6.41382 60.4084 6.41382C55.505 6.41382 51.8896 9.94041 51.8896 14.7116C51.8896 19.4829 55.505 23.0095 60.4084 23.0095ZM60.4084 20.3819C57.2223 20.3819 54.8498 18.0078 54.8498 14.7116C54.8498 11.4156 57.2223 9.04147 60.4084 9.04147C63.5944 9.04147 65.9671 11.4156 65.9671 14.7116C65.9671 18.0078 63.5944 20.3819 60.4084 20.3819ZM84.8646 22.779H73.6568V6.64431H76.5943V20.2435H84.8646V22.779ZM103.431 22.779H106.504L99.364 6.64431H96.4718L89.3539 22.779H92.3818L93.9409 19.0449H101.85L103.431 22.779ZM94.9352 16.694L97.8952 9.64076L100.878 16.694H94.9352ZM124.186 10.8393C124.186 12.4989 123.373 13.7205 122.153 14.389C123.848 14.9422 125 16.302 125 18.3996C125 21.1655 122.876 22.779 118.809 22.779H110.945V11.7324H113.883V13.4439H118.04C120.074 13.4439 121.226 12.7063 121.226 11.2312C121.226 9.73296 120.074 8.99537 118.04 8.99537H113.883H110.945V6.64431H118.357C122.153 6.64431 124.186 8.28083 124.186 10.8393ZM113.883 20.4279H118.628C120.842 20.4279 122.04 19.7135 122.04 18.1C122.04 16.4864 120.842 15.772 118.628 15.772H113.883V20.4279Z" fill="white"/>
<path d="M25.6586 13.3467C25.6586 14.3001 25.5709 14.3002 24.8675 14.769L13.9585 21.0673C13.4336 21.3675 13.1984 21.5061 13.1984 21.8307L13.1982 16.0727C13.1982 15.2694 13.4475 14.801 13.9459 14.5132L24.9109 8.18258C25.4035 7.89823 25.662 7.53457 25.6587 7.2998L25.6586 13.3467Z" fill="#006CE0"/>
<path d="M25.6585 20.9848C25.6585 21.6339 25.4031 22.106 24.9109 22.3901C24.9109 22.3901 14.4771 28.4169 13.9521 28.7171C13.4478 29.0084 13.1982 28.8278 13.1982 28.2031C13.1982 27.3325 13.1986 23.4824 13.1986 23.4824C13.1986 22.9712 13.435 22.3722 13.9396 22.0809L24.9112 15.7464C25.4096 15.4586 25.6585 15.3205 25.6585 14.8866V20.9848Z" fill="#006CE0"/>
<path d="M5.36276 4.07475C6.18847 3.59803 6.23234 3.67403 6.99019 4.04879L17.8991 10.3471C18.4216 10.6516 18.6592 10.7859 18.9403 10.6236L13.9538 13.5027C13.2582 13.9043 12.7277 13.9228 12.2294 13.635L1.26438 7.30433C0.771882 7.02 0.327687 6.97795 0.125977 7.09811L5.36276 4.07475Z" fill="#006CE0"/>
<path d="M11.977 0.256625C12.5392 -0.0679324 13.0756 -0.082737 13.5679 0.201423C13.5679 0.201423 24.0042 6.22397 24.5266 6.52849C25.0309 6.81966 24.9994 7.12598 24.4583 7.43837C23.7043 7.87365 20.37 9.79843 20.37 9.79843C19.9273 10.054 19.2903 10.1488 18.7857 9.85743L7.8141 3.52299C7.31569 3.23523 7.07158 3.08876 6.6958 3.30573L11.977 0.256625Z" fill="#006CE0"/>
<path d="M7.45859 26.2886C6.63288 25.8118 6.67677 25.7359 6.62238 24.8922V12.2956C6.62488 11.6909 6.62238 11.4179 6.34131 11.2556L11.3279 14.1346C12.0236 14.5362 12.3047 14.9862 12.3047 15.5617V28.2231C12.3047 28.7918 12.4903 29.1974 12.6953 29.312L7.45859 26.2886Z" fill="#006CE0"/>
<path d="M0.844334 22.4694C0.282183 22.1448 0.00110636 21.6876 0.00110627 21.1193C0.00110627 21.1193 -0.00138327 9.0699 0.00110692 8.46517C0.00110683 7.88283 0.28218 7.75701 0.823253 8.0694C1.57716 8.50468 4.91131 10.43 4.91131 10.43C5.35401 10.6856 5.75454 11.1898 5.75454 11.7725V24.4414C5.75454 25.017 5.74976 25.3016 6.12554 25.5186L0.844334 22.4694Z" fill="#006CE0"/>
</svg>
